<?xml version="1.0" standalone="no"?>
<!DOCTYPE svg PUBLIC "-//W3C//DTD SVG 20010904//EN"
 "http://www.w3.org/TR/2001/REC-SVG-20010904/DTD/svg10.dtd">
<svg version="1.0" xmlns="http://www.w3.org/2000/svg"
 width="500.000000pt" height="500.000000pt" viewBox="0 0 500.000000 500.000000"
 preserveAspectRatio="xMidYMid meet">

<g transform="translate(0.000000,500.000000) scale(0.100000,-0.100000)"
fill="#000000" stroke="none">
<path d="M2406 4304 c-386 -70 -702 -320 -851 -674 -64 -151 -80 -236 -80
-425 0 -176 9 -237 55 -369 11 -33 20 -63 20 -68 0 -5 -30 -8 -67 -6 l-67 3
-19 60 c-10 33 -34 119 -53 190 -43 162 -51 183 -83 218 -53 58 -93 70 -248
75 -169 5 -226 -2 -253 -31 -22 -23 -26 -74 -7 -98 26 -34 55 -39 214 -39 108
-1 163 -4 174 -13 17 -13 29 -45 54 -139 8 -32 22 -84 31 -115 8 -32 26 -98
39 -148 13 -49 35 -131 49 -181 15 -50 28 -100 30 -110 4 -19 30 -114 79 -294
25 -88 46 -168 73 -270 14 -52 34 -125 44 -161 20 -73 15 -98 -34 -162 -66
-86 -87 -218 -47 -295 37 -72 115 -124 204 -137 26 -3 47 -10 47 -14 0 -4 -17
-21 -37 -38 -84 -67 -117 -209 -73 -312 76 -176 311 -225 451 -94 65 60 93
133 86 223 -5 77 -29 129 -88 187 l-42 43 474 0 c413 -1 471 -2 454 -15 -70
-50 -85 -63 -102 -90 -48 -79 -58 -188 -23 -260 101 -209 395 -217 505 -15 25
47 29 66 29 130 0 103 -31 162 -120 228 l-29 21 88 1 c73 0 90 3 107 20 20 20
26 63 14 95 -18 45 -11 45 -912 45 l-849 0 -26 25 c-48 49 -38 105 38 203 l35
47 801 3 c441 1 819 6 840 11 93 21 193 111 229 207 11 30 20 61 20 68 0 7 47
199 104 426 109 434 109 437 69 482 -9 10 -29 18 -44 18 -15 0 -31 5 -34 10
-4 6 5 48 19 93 37 123 46 187 46 341 0 160 -18 260 -71 397 -141 366 -472
635 -868 704 -104 19 -290 18 -395 -1z m342 -148 c10 -10 11 -23 2 -62 -13
-55 -68 -114 -105 -114 -22 0 -99 50 -123 79 -17 21 -54 92 -50 96 33 27 249
28 276 1z m161 -28 c20 -6 50 -17 66 -23 17 -7 40 -16 53 -20 20 -6 22 -12 22
-75 0 -38 5 -72 10 -75 6 -3 10 -13 10 -21 0 -14 54 -91 74 -105 5 -4 6 -11 2
-17 -3 -6 -2 -13 4 -17 15 -9 12 -19 -11 -46 -41 -46 -50 -67 -56 -133 -3 -36
-10 -66 -15 -66 -5 0 -6 -5 -3 -10 4 -6 11 -7 17 -4 7 5 9 0 6 -14 -5 -18 2
-25 42 -45 l48 -24 -51 -39 c-29 -21 -56 -37 -60 -36 -5 1 -6 -2 -2 -8 3 -5
-6 -27 -20 -47 -14 -21 -25 -43 -25 -50 0 -7 -4 -13 -8 -13 -13 0 -7 -180 8
-225 18 -55 59 -112 92 -127 15 -7 24 -16 22 -20 -3 -4 2 -5 10 -2 9 3 16 2
16 -3 0 -5 10 -9 23 -10 120 -2 113 0 112 -35 0 -31 -2 -33 -45 -40 -25 -3
-121 -7 -214 -7 l-168 -1 4 25 c3 14 1 25 -4 25 -6 0 -8 7 -4 15 3 8 2 15 -3
15 -4 0 -13 10 -18 23 -11 24 -102 77 -133 77 -20 0 -43 23 -33 34 4 4 1 5 -7
2 -15 -6 -67 60 -62 77 1 5 -2 6 -7 3 -5 -4 -13 0 -18 8 -4 8 -25 24 -45 36
-21 12 -38 26 -38 32 0 5 -4 7 -8 4 -5 -3 -32 4 -61 14 -85 33 -236 24 -263
-15 -11 -15 -37 25 -38 57 0 15 -5 30 -11 33 -6 4 -8 13 -5 21 3 8 2 13 -2 12
-4 -1 -24 6 -46 15 -21 9 -44 17 -51 17 -22 0 -27 31 -8 46 31 23 70 12 106
-30 10 -11 15 -14 11 -6 -7 13 -6 13 10 1 16 -13 114 -25 101 -13 -8 8 16 32
26 26 5 -3 9 -2 8 3 -4 21 2 34 13 27 7 -4 8 -3 4 4 -4 6 -1 22 6 34 7 13 11
29 9 37 -1 7 1 11 6 8 4 -3 9 7 10 21 0 15 6 28 12 30 6 2 11 9 11 15 0 17 36
38 54 31 8 -3 38 2 65 11 28 9 55 14 61 10 5 -3 10 -2 10 4 0 5 8 12 18 15 10
4 33 21 51 38 29 29 32 36 28 77 -2 26 -8 57 -12 70 -7 21 -6 23 11 17 14 -5
16 -4 8 4 -12 12 -44 4 -44 -11 0 -5 -15 -9 -34 -9 -40 0 -57 -18 -61 -62 -3
-36 -20 -46 -76 -47 -91 -2 -156 -46 -198 -136 -17 -36 -31 -72 -31 -79 0 -25
-17 -27 -55 -5 -25 15 -54 22 -100 23 -62 1 -66 0 -102 -37 -36 -35 -38 -41
-37 -97 1 -53 4 -63 30 -85 16 -14 38 -25 50 -25 25 0 49 -26 58 -62 8 -35 4
-35 -47 1 -23 15 -64 40 -92 54 -72 36 -85 54 -97 139 -6 40 -18 84 -27 98
-25 37 -38 69 -55 127 l-14 51 46 79 c104 176 335 359 535 423 32 10 42 9 70
-7 35 -21 47 -51 25 -64 -7 -5 -34 -9 -60 -9 -52 0 -81 -19 -98 -66 -15 -39
-12 -61 16 -119 31 -62 67 -85 104 -65 18 10 21 18 17 45 -4 26 -2 35 11 38
10 3 6 5 -9 6 -26 1 -39 17 -39 47 0 8 7 14 15 14 8 0 15 -8 15 -17 0 -11 3
-14 8 -7 4 6 35 16 70 23 61 12 64 11 92 -12 16 -14 26 -29 22 -33 -4 -5 -3
-6 1 -2 5 3 24 0 42 -8 48 -20 104 -17 143 6 36 22 57 26 46 8 -4 -7 -3 -8 5
-4 6 4 9 12 5 17 -3 5 8 30 25 55 26 39 59 143 53 167 -3 10 5 9 47 -5z m290
-146 c167 -134 303 -311 341 -441 8 -28 6 -31 -13 -31 -12 0 -46 15 -77 34
-81 50 -117 54 -179 19 -40 -22 -55 -26 -68 -17 -32 20 -26 56 17 119 52 78
55 128 9 200 -17 27 -38 54 -46 60 -14 11 -36 85 -24 85 3 0 21 -13 40 -28z
m-1504 -671 c3 -31 8 -65 10 -76 7 -28 54 -79 93 -99 17 -9 32 -20 32 -25 0
-5 8 -8 18 -7 9 0 16 -5 14 -12 -1 -8 2 -11 8 -7 11 7 121 -63 155 -98 13 -15
15 -22 7 -25 -10 -3 -10 -7 -1 -18 9 -11 9 -14 0 -14 -7 0 -10 -3 -8 -8 3 -4
6 -27 8 -52 1 -25 8 -57 16 -72 l13 -26 -161 -1 c-128 -1 -159 1 -153 11 6 11
5 11 -8 0 -21 -17 -27 -7 -72 103 -45 113 -61 343 -35 493 l12 65 23 -38 c13
-22 26 -63 29 -94z m1836 89 c12 0 17 -4 14 -11 -4 -6 -14 -8 -24 -5 -12 5
-11 2 3 -9 11 -8 15 -15 10 -15 -6 0 -21 12 -35 27 -19 21 -20 25 -6 20 10 -4
28 -7 38 -7z m49 -30 c0 -5 -4 -10 -9 -10 -6 0 -13 5 -16 10 -3 6 1 10 9 10 9
0 16 -4 16 -10z m-161 -60 c58 -40 126 -62 161 -53 19 5 20 0 20 -83 0 -110
-28 -244 -70 -339 -5 -11 -12 -30 -15 -42 -5 -20 -13 -23 -56 -23 l-49 0 0 63
c0 53 -4 67 -22 85 -30 28 -63 39 -121 41 -112 3 -152 48 -151 171 1 112 46
181 141 216 52 19 95 9 162 -36z m-966 -273 c24 -15 69 -55 98 -89 66 -77 74
-83 124 -99 57 -18 85 -38 85 -60 0 -18 -12 -19 -275 -19 l-274 0 -36 35 c-29
30 -35 43 -35 78 0 58 45 130 105 169 43 28 147 20 208 -15z m1160 -437 c-3
-11 -9 -23 -14 -25 -4 -3 -6 -12 -2 -21 3 -8 -3 -22 -13 -30 -11 -9 -13 -13
-6 -9 15 8 17 22 -21 -135 -19 -74 -42 -170 -52 -212 -11 -43 -23 -78 -28 -78
-4 0 -6 -4 -2 -9 6 -10 -34 -182 -44 -191 -3 -3 -7 -18 -9 -35 -5 -45 -33 -86
-81 -120 l-43 -30 -796 0 -797 0 -23 80 c-12 44 -24 87 -26 95 -1 8 -12 47
-24 85 -39 130 -73 269 -67 283 2 7 1 11 -4 7 -5 -3 -14 14 -19 37 -5 24 -26
101 -46 173 -20 71 -36 135 -36 142 0 10 218 13 1079 13 1077 0 1079 0 1074
-20z m-1664 -1646 c27 -22 31 -33 31 -72 0 -82 -57 -146 -127 -144 -37 2 -66
18 -57 33 3 5 -3 6 -12 2 -14 -5 -16 -3 -11 11 4 10 3 15 -3 11 -16 -10 -32
45 -25 86 6 35 43 80 75 92 41 15 99 6 129 -19z m1184 15 c58 -30 72 -91 36
-155 -49 -87 -119 -104 -188 -44 -34 29 -40 94 -12 142 35 58 111 84 164 57z"/>
<path d="M3045 3860 c-3 -5 -15 -10 -25 -10 -10 0 -32 -17 -49 -37 l-30 -37
22 -40 c15 -27 30 -40 47 -42 32 -3 70 15 70 33 0 8 4 11 10 8 5 -3 7 0 4 8
-3 8 -1 18 5 22 6 3 11 11 11 16 0 6 -4 7 -10 4 -5 -3 -10 -2 -10 4 0 6 -11
21 -24 34 -18 18 -22 27 -13 36 6 6 8 11 5 11 -4 0 -10 -4 -13 -10z"/>
<path d="M2620 3756 c0 -2 8 -10 18 -17 15 -13 16 -12 3 4 -13 16 -21 21 -21
13z"/>
<path d="M3035 3671 c-3 -5 -2 -12 3 -15 5 -3 9 1 9 9 0 17 -3 19 -12 6z"/>
<path d="M2586 3585 c-3 -8 -1 -15 4 -15 6 0 10 7 10 15 0 8 -2 15 -4 15 -2 0
-6 -7 -10 -15z"/>
<path d="M3127 3439 c7 -7 15 -10 18 -7 3 3 -2 9 -12 12 -14 6 -15 5 -6 -5z"/>
<path d="M3049 3373 c-12 -16 -12 -17 2 -6 9 7 20 9 24 5 5 -4 5 -1 1 6 -9 16
-11 15 -27 -5z"/>
<path d="M2180 3256 c0 -2 7 -6 15 -10 8 -3 15 -1 15 4 0 6 -7 10 -15 10 -8 0
-15 -2 -15 -4z"/>
<path d="M2168 3203 c7 -3 16 -2 19 1 4 3 -2 6 -13 5 -11 0 -14 -3 -6 -6z"/>
<path d="M2967 2993 c3 -7 6 -13 8 -13 2 0 5 6 8 13 3 8 -1 14 -8 14 -7 0 -11
-6 -8 -14z"/>
<path d="M1686 3188 c3 -5 10 -6 15 -3 13 9 11 12 -6 12 -8 0 -12 -4 -9 -9z"/>
</g>
</svg>
